HIERARCHY
ROOT hip
{
  OFFSET 181.538 78.9113 168.772
  CHANNELS 6 Xposition Yposition Zposition Zrotation Xrotation Yrotation
  JOINT abdomen
  {
    OFFSET 0 20.6881 -0.73152
    CHANNELS 3 Zrotation Xrotation Yrotation
    JOINT chest
    {
      OFFSET 0 11.7043 -0.48768
      CHANNELS 3 Zrotation Xrotation Yrotation
      JOINT neck
      {
        OFFSET 0 22.1894 -2.19456
        CHANNELS 3 Zrotation Xrotation Yrotation
        JOINT head
        {
          OFFSET -0.24384 7.07133 1.2192
          CHANNELS 3 Zrotation Xrotation Yrotation
          JOINT leftEye
          {
            OFFSET 4.14528 8.04674 8.04672
            CHANNELS 3 Zrotation Xrotation Yrotation
            End Site
            {
              OFFSET 1 0 0
            }
          }
          JOINT rightEye
          {
            OFFSET -3.6576 8.04674 8.04672
            CHANNELS 3 Zrotation Xrotation Yrotation
            End Site
            {
              OFFSET 1 0 0
            }
          }
        }
      }
      JOINT rCollar
      {
        OFFSET -2.68224 19.2634 -4.8768
        CHANNELS 3 Zrotation Xrotation Yrotation
        JOINT rShldr
        {
          OFFSET -8.77824 -1.95073 1.46304
          CHANNELS 3 Zrotation Xrotation Yrotation
          JOINT rForeArm
          {
            OFFSET -28.1742 -1.7115 0.48768
            CHANNELS 3 Zrotation Xrotation Yrotation
            JOINT rHand
            {
              OFFSET -22.5879 0.773209 7.07136
              CHANNELS 3 Zrotation Xrotation Yrotation
              JOINT rThumb1
              {
                OFFSET -1.2192 -0.487915 3.41376
                CHANNELS 3 Zrotation Xrotation Yrotation
                JOINT rThumb2
                {
                  OFFSET -3.37035 -0.52449 3.41376
                  CHANNELS 3 Zrotation Xrotation Yrotation
                  End Site
                  {
                    OFFSET -1.78271 -1.18214 1.43049
                  }
                }
              }
              JOINT rIndex1
              {
                OFFSET -7.75947 0.938293 5.60832
                CHANNELS 3 Zrotation Xrotation Yrotation
                JOINT rIndex2
                {
                  OFFSET -2.54057 -0.884171 1.56538
                  CHANNELS 3 Zrotation Xrotation Yrotation
                  End Site
                  {
                    OFFSET -1.62519 -0.234802 1.16502
                  }
                }
              }
              JOINT rMid1
              {
                OFFSET -8.24714 1.18213 3.41376
                CHANNELS 3 Zrotation Xrotation Yrotation
                JOINT rMid2
                {
                  OFFSET -3.10165 -0.590103 1.0647
                  CHANNELS 3 Zrotation Xrotation Yrotation
                  End Site
                  {
                    OFFSET -2.48547 -0.328903 0.83742
                  }
                }
              }
              JOINT rRing1
              {
                OFFSET -8.82822 0.546677 1.51678
                CHANNELS 3 Zrotation Xrotation Yrotation
                JOINT rRing2
                {
                  OFFSET -2.60934 -0.819778 -0.0198488
                  CHANNELS 3 Zrotation Xrotation Yrotation
                  End Site
                  {
                    OFFSET -2.33842 -0.294052 0.168128
                  }
                }
              }
              JOINT rPinky1
              {
                OFFSET -8.27202 -0.0477905 -0.4584
                CHANNELS 3 Zrotation Xrotation Yrotation
                JOINT rPinky2
                {
                  OFFSET -1.82734 -0.647385 -0.700984
                  CHANNELS 3 Zrotation Xrotation Yrotation
                  End Site
                  {
                    OFFSET -1.69225 -0.51767 -0.607171
                  }
                }
              }
            }
          }
        }
      }
      JOINT lCollar
      {
        OFFSET 2.68224 19.2634 -4.8768
        CHANNELS 3 Zrotation Xrotation Yrotation
        JOINT lShldr
        {
          OFFSET 8.77824 -1.95073 1.46304
          CHANNELS 3 Zrotation Xrotation Yrotation
          JOINT lForeArm
          {
            OFFSET 28.1742 -1.7115 0.48768
            CHANNELS 3 Zrotation Xrotation Yrotation
            JOINT lHand
            {
              OFFSET 22.5879 0.773209 7.07136
              CHANNELS 3 Zrotation Xrotation Yrotation
              JOINT lThumb1
              {
                OFFSET 1.2192 -0.487915 3.41376
                CHANNELS 3 Zrotation Xrotation Yrotation
                JOINT lThumb2
                {
                  OFFSET 3.37035 -0.52449 3.41376
                  CHANNELS 3 Zrotation Xrotation Yrotation
                  End Site
                  {
                    OFFSET 1.78271 -1.18214 1.43049
                  }
                }
              }
              JOINT lIndex1
              {
                OFFSET 7.75947 0.938293 5.60832
                CHANNELS 3 Zrotation Xrotation Yrotation
                JOINT lIndex2
                {
                  OFFSET 2.54057 -0.884171 1.56538
                  CHANNELS 3 Zrotation Xrotation Yrotation
                  End Site
                  {
                    OFFSET 1.62519 -0.234802 1.16502
                  }
                }
              }
              JOINT lMid1
              {
                OFFSET 8.24714 1.18213 3.41376
                CHANNELS 3 Zrotation Xrotation Yrotation
                JOINT lMid2
                {
                  OFFSET 3.10165 -0.590103 1.0647
                  CHANNELS 3 Zrotation Xrotation Yrotation
                  End Site
                  {
                    OFFSET 2.48547 -0.328903 0.83742
                  }
                }
              }
              JOINT lRing1
              {
                OFFSET 8.82822 0.546677 1.51678
                CHANNELS 3 Zrotation Xrotation Yrotation
                JOINT lRing2
                {
                  OFFSET 2.60934 -0.819778 -0.0198488
                  CHANNELS 3 Zrotation Xrotation Yrotation
                  End Site
                  {
                    OFFSET 2.33842 -0.294052 0.168128
                  }
                }
              }
              JOINT lPinky1
              {
                OFFSET 8.27202 -0.0477905 -0.4584
                CHANNELS 3 Zrotation Xrotation Yrotation
                JOINT lPinky2
                {
                  OFFSET 1.82734 -0.647385 -0.700984
                  CHANNELS 3 Zrotation Xrotation Yrotation
                  End Site
                  {
                    OFFSET 1.69225 -0.51767 -0.607171
                  }
                }
              }
            }
          }
        }
      }
    }
  }
  JOINT rButtock
  {
    OFFSET -8.77824 4.35084 1.2192
    CHANNELS 3 Zrotation Xrotation Yrotation
    JOINT rThigh
    {
      OFFSET 0 -1.70687 -2.19456
      CHANNELS 3 Zrotation Xrotation Yrotation
      JOINT rShin
      {
        OFFSET 0 -36.8199 0.73152
        CHANNELS 3 Zrotation Xrotation Yrotation
        JOINT rFoot
        {
          OFFSET 0.73152 -45.1104 -5.12064
          CHANNELS 3 Zrotation Xrotation Yrotation
          End Site
          {
            OFFSET -1.1221 -3.69964 12.103
          }
        }
      }
    }
  }
  JOINT lButtock
  {
    OFFSET 8.77824 4.35084 1.2192
    CHANNELS 3 Zrotation Xrotation Yrotation
    JOINT lThigh
    {
      OFFSET 0 -1.70687 -2.19456
      CHANNELS 3 Zrotation Xrotation Yrotation
      JOINT lShin
      {
        OFFSET 0 -36.8199 0.73152
        CHANNELS 3 Zrotation Xrotation Yrotation
        JOINT lFoot
        {
          OFFSET -0.73152 -45.1104 -5.12064
          CHANNELS 3 Zrotation Xrotation Yrotation
          End Site
          {
            OFFSET 1.1221 -3.69964 12.103
          }
        }
      }
    }
  }
}
MOTION
Frames:	5
Frame Time:	0.00833333
-188.925 74.7105 -53.963 2.38044 0.0111361 -0.045597 -3.13118 0.00208552 -0.0845024 -0.863223 0.0181965 -0.14933 -1.84819e-013 -7.95139e-016 -7.95139e-016 -5.53156e-013 -6.36111e-015 -2.43356e-015 -0 0 0 -0 0 0 -9.25908e-014 -4.34453e-016 -9.93923e-017 -1.93621e-012 -9.18758e-015 -1.41137e-014 -3.33229e-011 9.70685e-012 1.30403e-013 -3.81998e-010 -1.16215e-011 -2.29954e-012 -9.00949e-010 -4.15179e-012 -4.5959e-012 -1.5559e-009 -7.16897e-012 -7.91799e-012 -9.00944e-010 -4.14903e-012 -4.60862e-012 7.73091 5.47488 0.417314 -9.0095e-010 -4.15162e-012 -4.60226e-012 2.90554 0.965183 0.102902 -9.00941e-010 -4.15162e-012 -4.59749e-012 10.2786 0.731801 0.0259123 -9.00955e-010 -4.14864e-012 -4.58954e-012 2.22167 -0.733487 -0.20892 -9.2782e-014 -4.35618e-016 -5.96354e-016 -1.93805e-012 -8.41108e-015 -1.5704e-014 -3.34215e-011 -1.0269e-011 1.46306e-013 -3.81882e-010 8.39475e-012 -2.29e-012 -9.00919e-010 -4.07521e-012 -4.5959e-012 -1.55584e-009 -7.04493e-012 -7.89811e-012 -9.00922e-010 -4.07389e-012 -4.58e-012 -7.73091 5.47488 -0.417314 -9.00918e-010 -4.07528e-012 -4.59908e-012 -2.90554 0.965183 -0.102902 -9.00927e-010 -4.07489e-012 -4.59431e-012 -10.2786 0.731801 -0.0259123 -9.0091e-010 -4.0723e-012 -4.60226e-012 -2.22167 -0.733487 0.20892 -2.03217e-016 0 -3.88251e-019 -1.91904 -1.93503 0.0146288 -0.00849878 -2.07867 -0.0697448 -0.458392 4.00011 0.132418 2.03217e-016 0 3.88251e-019 -2.83848 -9.32623 0.322376 -0.0090233 11.3078 -0.235065 0.527621 -1.99507 -0.0183874 
-183.311 71.8491 -62.8266 10.5784 14.0982 18.2053 -8.03249 7.17848 -4.13354 1.56723 -0.558703 -1.50637 -3.39688 3.22849 -0.695059 6.79788 -13.774 1.97412 -0 0 0 -0 0 0 1.999e-013 -4.54628e-013 -1.74929e-013 20.1879 -1.79663 0.530129 -25.8466 -23.5825 14.1676 0.144944 -8.60268 -1.16272 4.41267e-011 9.67513e-009 -1.11923e-009 1.01094e-010 1.6671e-008 -1.91147e-009 4.41323e-011 9.67514e-009 -1.11924e-009 7.73091 5.47488 0.417314 4.41258e-011 9.67513e-009 -1.11923e-009 2.90554 0.965183 0.102902 4.41338e-011 9.67514e-009 -1.11923e-009 10.2786 0.731801 0.0259123 4.41205e-011 9.67514e-009 -1.11922e-009 2.22167 -0.733487 -0.20892 1.99761e-013 -4.54623e-013 -1.75315e-013 -21.9033 9.75358 -2.10242 17.1015 -14.5693 -14.9861 -0.0259152 -3.57216 0.498516 -8.29145e-010 -1.44173e-009 1.18664e-009 -1.43834e-009 -2.48979e-009 2.04296e-009 -8.29146e-010 -1.44173e-009 1.18665e-009 -7.73091 5.47488 -0.417314 -8.29143e-010 -1.44173e-009 1.18664e-009 -2.90554 0.965183 -0.102902 -8.2915e-010 -1.44173e-009 1.18664e-009 -10.2786 0.731801 -0.0259123 -8.29138e-010 -1.44173e-009 1.18663e-009 -2.22167 -0.733487 0.20892 -2.03217e-016 0 -3.88251e-019 -1.76848 -17.8292 0.25989 0.124882 24.0213 0.253185 -0.830541 2.80453 -3.44516 2.03217e-016 0 3.88251e-019 -2.0474 -7.4044 4.03727 -0.179973 20.0083 -0.589517 0.50644 -1.79094 -3.73727 
-179.666 72.2795 -61.4151 9.49017 24.132 40.5375 -12.0957 14.7306 -8.60716 4.08604 -1.18724 -2.93832 -6.89987 6.67898 -1.45966 15.2285 -28.3423 4.47644 -0 0 0 -0 0 0 5.20349e-013 -9.62016e-013 -3.60841e-013 41.5239 -3.87829 1.07405 -36.9466 -43.0121 37.9263 -0.103907 -17.866 -2.50923 1.03954e-009 2.04764e-008 -2.40543e-009 1.84831e-009 3.52874e-008 -4.10971e-009 1.03954e-009 2.04764e-008 -2.40545e-009 7.73091 5.47488 0.417314 1.03954e-009 2.04764e-008 -2.40543e-009 2.90554 0.965183 0.102902 1.03955e-009 2.04764e-008 -2.40544e-009 10.2786 0.731801 0.0259123 1.03953e-009 2.04764e-008 -2.40542e-009 2.22167 -0.733487 -0.20892 5.20267e-013 -9.62004e-013 -3.61108e-013 -44.256 19.9421 -4.60431 26.4058 -26.4025 -33.7208 0.0147883 -7.34813 1.03208 -7.73755e-010 -3.07712e-009 2.52998e-009 -1.35015e-009 -5.31438e-009 4.35575e-009 -7.73754e-010 -3.07712e-009 2.52998e-009 -7.73091 5.47488 -0.417314 -7.73753e-010 -3.07712e-009 2.52997e-009 -2.90554 0.965183 -0.102902 -7.73756e-010 -3.07712e-009 2.52997e-009 -10.2786 0.731801 -0.0259123 -7.73749e-010 -3.07712e-009 2.52996e-009 -2.22167 -0.733487 0.20892 -2.03217e-016 0 -3.88251e-019 -1.46441 -34.6037 0.560819 -0.227091 51.8961 0.890826 -1.39268 1.55242 -7.28065 2.03217e-016 0 3.88251e-019 -1.40938 -5.56351 8.03823 -0.225755 29.4429 -1.02321 0.488492 -1.68236 -7.86645 
-176.066 72.6793 -60.1462 2.67903 24.9002 61.7107 -14.633 21.0812 -13.0194 6.3462 -1.70844 -4.2221 -9.95282 9.67973 -2.11195 24.0229 -41.0922 7.64197 -0 0 0 -0 0 0 7.84882e-013 -1.36302e-012 -5.24589e-013 60.6637 -5.38805 1.59666 -31.2068 -48.0062 69.7766 -0.710114 -25.7631 -3.83013 1.93428e-009 2.90337e-008 -3.34849e-009 3.41509e-009 5.00273e-008 -5.71856e-009 1.93428e-009 2.90337e-008 -3.34851e-009 7.73091 5.47488 0.417314 1.93428e-009 2.90337e-008 -3.34849e-009 2.90554 0.965183 0.102902 1.93428e-009 2.90337e-008 -3.3485e-009 10.2786 0.731801 0.0259123 1.93427e-009 2.90337e-008 -3.34848e-009 2.22167 -0.733487 -0.20892 7.84847e-013 -1.363e-012 -5.24753e-013 -63.3046 29.0913 -7.1178 28.1627 -30.9757 -53.3758 0.11153 -10.7132 1.51913 -6.85598e-010 -4.31704e-009 3.56912e-009 -1.20333e-009 -7.45527e-009 6.14467e-009 -6.85594e-010 -4.31704e-009 3.56912e-009 -7.73091 5.47488 -0.417314 -6.85594e-010 -4.31704e-009 3.56912e-009 -2.90554 0.965183 -0.102902 -6.85595e-010 -4.31704e-009 3.56911e-009 -10.2786 0.731801 -0.0259123 -6.85592e-010 -4.31704e-009 3.5691e-009 -2.22167 -0.733487 0.20892 -2.03217e-016 0 -3.88251e-019 -0.866894 -49.6127 1.10041 -2.69781 76.1973 3.49426 -2.02088 0.421281 -10.5876 2.03217e-016 0 3.88251e-019 -1.21029 -3.544 11.3965 -0.116498 37.4023 -1.51166 0.543584 -1.3677 -11.1728 
-172.475 73.1008 -58.744 -2.31879 20.4308 74.1412 -15.7261 24.8577 -16.4886 8.02177 -1.96537 -5.13362 -12.0661 11.5626 -2.45464 30.962 -49.5033 10.8845 -0 0 0 -0 0 0 9.09624e-013 -1.49805e-012 -6.3293e-013 74.2282 -5.47002 2.05772 -27.4019 -42.834 89.1693 -1.27557 -30.2941 -4.70963 2.57734e-009 3.19813e-008 -3.43368e-009 4.53081e-009 5.5076e-008 -5.85395e-009 2.57734e-009 3.19813e-008 -3.4337e-009 7.73091 5.47488 0.417314 2.57733e-009 3.19813e-008 -3.43368e-009 2.90554 0.965183 0.102902 2.57734e-009 3.19813e-008 -3.43369e-009 10.2786 0.731801 0.0259123 2.57733e-009 3.19813e-008 -3.43367e-009 2.22167 -0.733487 -0.20892 9.09614e-013 -1.49803e-012 -6.3303e-013 -75.9561 35.8229 -8.87502 27.8763 -29.9193 -67.12 0.213677 -13.0542 1.8674 -5.1552e-010 -4.5683e-009 3.84779e-009 -9.09907e-010 -7.88691e-009 6.62392e-009 -5.15516e-010 -4.56829e-009 3.84779e-009 -7.73091 5.47488 -0.417314 -5.15515e-010 -4.5683e-009 3.84779e-009 -2.90554 0.965183 -0.102902 -5.15516e-010 -4.5683e-009 3.84778e-009 -10.2786 0.731801 -0.0259123 -5.15515e-010 -4.5683e-009 3.84777e-009 -2.22167 -0.733487 0.20892 -2.03217e-016 0 -3.88251e-019 0.251566 -60.2073 2.12834 -147.289 88.0504 148.131 -2.49591 -0.427105 -12.5779 2.03217e-016 0 3.88251e-019 -1.66303 -1.08488 13.1955 0.0459975 41.6796 -1.93111 0.772016 -0.557077 -12.4241 
